<svg width="194" height="155" viewBox="0 0 194 155" fill="none" xmlns="http://www.w3.org/2000/svg">
<g clip-path="url(#clip0_101_512)">
<path d="M34.0819 101.033C29.2343 101.033 25.0605 100.079 21.5779 98.1611C18.0866 96.2434 15.199 93.8003 12.8977 90.8144L14.2978 87.1103V99.6235H0V0H14.1665V56.7163L14.0353 51.7338C16.1616 49.1769 19.1366 47.1191 22.9692 45.5429C26.8018 43.9667 31.0893 43.1786 35.8582 43.1786C40.627 43.1786 45.1159 44.3257 49.0709 46.6287C53.026 48.9229 56.1761 52.1891 58.5124 56.4011C60.8487 60.613 62.0212 65.7093 62.0212 71.6637C62.0212 77.6182 60.7437 82.951 58.1886 87.373C55.6336 91.8038 52.2123 95.1839 47.9159 97.5306C43.6196 99.8686 38.9995 101.042 34.0644 101.042M31.0018 88.9054C34.0644 88.9054 36.847 88.1611 39.3583 86.6725C41.8696 85.1839 43.8646 83.1173 45.3609 80.4729C46.8484 77.8371 47.5922 74.8511 47.5922 71.5324C47.5922 68.2137 46.8484 65.4028 45.3609 62.8459C43.8733 60.289 41.8696 58.2487 39.3583 56.7163C36.847 55.1839 34.0644 54.4133 31.0018 54.4133C28.2805 54.4133 25.7867 54.9037 23.538 55.8844C21.2804 56.8651 19.3641 58.1874 17.7978 59.8424C16.2228 61.5061 15.0503 63.4851 14.289 65.7793V77.662C15.1378 79.8774 16.3278 81.8301 17.8591 83.5377C19.3904 85.2452 21.2629 86.5587 23.4767 87.4956C25.6905 88.4326 28.2018 88.8967 31.0106 88.8967" fill="#315BA6"/>
<path d="M131.55 103.538L132.276 112.32L131.988 111.077C132.819 109.221 134 107.636 135.531 106.322C137.071 105.009 138.655 103.984 140.283 103.249C141.919 102.513 143.249 102.154 144.264 102.154L143.897 110.35C141.56 110.158 139.521 110.569 137.789 111.594C136.056 112.618 134.709 113.993 133.729 115.727C132.758 117.461 132.268 119.273 132.268 121.182V134.501H124.147V103.546H131.533L131.55 103.538Z" fill="#315BA6"/>
<path d="M152.314 92.408C152.314 91.1383 152.813 90.0876 153.81 89.2644C154.808 88.4326 155.893 88.021 157.066 88.021C158.238 88.021 159.279 88.4326 160.207 89.2644C161.134 90.0963 161.598 91.1383 161.598 92.408C161.598 93.6777 161.134 94.711 160.207 95.5166C159.279 96.3222 158.229 96.725 157.066 96.725C155.902 96.725 154.808 96.3135 153.81 95.4816C152.813 94.6497 152.314 93.6252 152.314 92.408ZM152.682 103.538H160.872V134.492H152.682V103.538Z" fill="#315BA6"/>
<path d="M181.426 135.149C179.081 135.149 176.858 134.737 174.732 133.905C172.615 133.073 170.847 131.856 169.43 130.245L172.868 125.63C174.233 126.944 175.59 127.916 176.928 128.52C178.267 129.133 179.545 129.431 180.77 129.431C181.697 129.431 182.537 129.317 183.29 129.098C184.042 128.879 184.655 128.529 185.119 128.038C185.582 127.548 185.819 126.891 185.819 126.059C185.819 125.087 185.477 124.317 184.795 123.756C184.112 123.196 183.237 122.732 182.161 122.364C181.085 121.996 179.938 121.646 178.722 121.305C176.088 120.429 174.111 119.194 172.798 117.609C171.486 116.024 170.821 114.186 170.821 112.084C170.821 110.473 171.232 108.923 172.063 107.434C172.895 105.946 174.163 104.711 175.87 103.739C177.576 102.758 179.72 102.277 182.31 102.277C184.646 102.277 186.685 102.548 188.417 103.082C190.15 103.616 191.769 104.475 193.282 105.648L190.141 110.622C189.266 109.746 188.225 109.072 187.035 108.608C185.836 108.144 184.751 107.89 183.78 107.837C182.905 107.784 182.117 107.898 181.443 108.17C180.761 108.441 180.201 108.818 179.763 109.299C179.326 109.79 179.107 110.35 179.107 110.981C179.107 111.961 179.457 112.741 180.166 113.327C180.875 113.914 181.785 114.378 182.905 114.72C184.025 115.061 185.145 115.429 186.265 115.814C187.779 116.252 189.1 116.865 190.246 117.644C191.392 118.424 192.302 119.361 192.985 120.464C193.667 121.559 194.009 122.916 194.009 124.527C194.009 126.383 193.545 128.126 192.617 129.763C191.69 131.401 190.299 132.706 188.444 133.678C186.589 134.65 184.252 135.14 181.426 135.14" fill="#315BA6"/>
<path d="M73.9827 155C56.2811 155 41.8783 140.587 41.8783 122.872C41.8783 119.711 44.4421 117.137 47.6009 117.137C50.7597 117.137 53.3235 119.702 53.3235 122.872C53.3235 134.265 62.5899 143.538 73.9739 143.538C85.3579 143.538 94.6243 134.265 94.6243 122.872C94.6243 119.711 97.1881 117.137 100.347 117.137C103.506 117.137 106.078 119.702 106.078 122.872C106.078 140.587 91.6755 155 73.9739 155" fill="white"/>
<path d="M107.951 107.566C107.951 109.641 107.137 111.357 105.501 112.706C103.873 114.063 102.097 114.737 100.181 114.737C98.2644 114.737 96.5581 114.054 95.0443 112.706C93.5306 111.348 92.7693 109.632 92.7693 107.566C92.7693 105.499 93.5306 103.8 95.0443 102.487C96.5581 101.173 98.2731 100.517 100.181 100.517C102.088 100.517 103.865 101.191 105.501 102.548C107.137 103.905 107.951 105.578 107.951 107.574" fill="#315BA6"/>
</g>
<defs>
<clipPath id="clip0_101_512">
<rect width="194" height="155" fill="white"/>
</clipPath>
</defs>
</svg>
