<svg width="113" height="90" viewBox="0 0 113 90" fill="none" xmlns="http://www.w3.org/2000/svg">
<g clip-path="url(#clip0_46_1523)">
<path d="M19.8505 58.6688C17.024 58.6688 14.5975 58.1125 12.5632 57C10.529 55.8875 8.84465 54.468 7.50641 52.734L8.32551 50.5818V57.8517H0V0H8.25244V32.9309L8.17938 30.0384C9.41763 28.5537 11.1519 27.3568 13.3823 26.4399C15.6127 25.523 18.1161 25.0665 20.8926 25.0665C23.6691 25.0665 26.284 25.734 28.5874 27.0691C30.8909 28.4041 32.7252 30.2954 34.0904 32.743C35.4517 35.1905 36.1362 38.1445 36.1362 41.6049C36.1362 45.0652 35.394 48.1573 33.9058 50.7276C32.4214 53.298 30.4217 55.266 27.9222 56.624C25.4188 57.9821 22.7307 58.665 19.8543 58.665M18.07 51.6176C19.8543 51.6176 21.4771 51.1841 22.9384 50.321C24.3997 49.4578 25.5649 48.257 26.434 46.7225C27.2992 45.1918 27.7337 43.4578 27.7337 41.532C27.7337 39.6061 27.2992 37.9719 26.434 36.4872C25.5649 35.0026 24.3997 33.8171 22.9384 32.9271C21.4771 32.0371 19.8543 31.5921 18.07 31.5921C16.4818 31.5921 15.0321 31.876 13.7207 32.4437C12.4056 33.0153 11.2904 33.7788 10.3752 34.7417C9.45608 35.7046 8.77543 36.8555 8.32935 38.1905V45.0882C8.82542 46.3734 9.51761 47.5128 10.4098 48.4987C11.3019 49.4885 12.3902 50.2558 13.6823 50.7967C14.9705 51.3414 16.4318 51.6138 18.07 51.6138" fill="#263D8D"/>
<path d="M76.6215 60.1189L77.0483 65.2174L76.8791 64.4962C77.3637 63.4182 78.052 62.4974 78.9442 61.734C79.8402 60.9706 80.7631 60.376 81.7129 59.9501C82.6628 59.5243 83.4395 59.3133 84.0356 59.3133L83.8241 64.0742C82.4589 63.9629 81.2745 64.2008 80.267 64.7954C79.2595 65.39 78.4712 66.1918 77.902 67.1969C77.3329 68.202 77.0483 69.257 77.0483 70.3619V78.0959H72.3184V60.1189H76.6215Z" fill="#263D8D"/>
<path d="M88.7195 53.6586C88.7195 52.922 89.0117 52.312 89.5924 51.8325C90.1731 51.3491 90.8076 51.1112 91.4882 51.1112C92.1689 51.1112 92.7803 51.3529 93.3187 51.8325C93.8571 52.3158 94.1301 52.922 94.1301 53.6586C94.1301 54.3951 93.8609 54.9974 93.3187 55.4655C92.7803 55.9335 92.1689 56.1675 91.4882 56.1675C90.8076 56.1675 90.1731 55.9258 89.5924 55.4463C89.0079 54.9629 88.7195 54.3683 88.7195 53.6624M88.931 60.1227H93.7032V78.0997H88.931V60.1227Z" fill="#263D8D"/>
<path d="M105.674 78.4757C104.309 78.4757 103.013 78.234 101.775 77.7545C100.541 77.2749 99.5099 76.5652 98.687 75.6292L100.691 72.9514C101.487 73.7148 102.275 74.2749 103.055 74.6317C103.836 74.9885 104.582 75.1611 105.294 75.1611C105.832 75.1611 106.324 75.0959 106.763 74.9693C107.205 74.8427 107.559 74.6356 107.828 74.3517C108.097 74.0678 108.232 73.688 108.232 73.2046C108.232 72.6368 108.032 72.1918 107.635 71.8657C107.239 71.5396 106.728 71.2711 106.101 71.0601C105.478 70.8491 104.809 70.6419 104.098 70.4425C102.563 69.9322 101.413 69.2187 100.648 68.298C99.883 67.3772 99.4984 66.3069 99.4984 65.0908C99.4984 64.1547 99.7407 63.257 100.221 62.3939C100.706 61.5307 101.444 60.8133 102.436 60.2494C103.429 59.6816 104.678 59.3977 106.186 59.3977C107.551 59.3977 108.735 59.555 109.743 59.8657C110.75 60.1765 111.696 60.6714 112.577 61.3542L110.746 64.243C110.235 63.7327 109.631 63.3453 108.935 63.0729C108.239 62.8044 107.609 62.6547 107.039 62.6279C106.528 62.601 106.074 62.6624 105.678 62.8197C105.278 62.977 104.955 63.1957 104.698 63.4795C104.444 63.7634 104.313 64.0895 104.313 64.4578C104.313 65.0256 104.521 65.4783 104.932 65.8197C105.344 66.1573 105.874 66.4297 106.528 66.6253C107.182 66.8248 107.835 67.0358 108.489 67.2622C109.37 67.5192 110.143 67.8721 110.812 68.3248C111.477 68.7775 112.012 69.3223 112.408 69.9591C112.804 70.5959 113.004 71.3824 113.004 72.3184C113.004 73.3964 112.735 74.4092 112.196 75.3568C111.658 76.3082 110.846 77.0639 109.766 77.6317C108.685 78.1995 107.324 78.4795 105.678 78.4795" fill="#263D8D"/>
<path d="M43.0928 90C32.783 90 24.3921 81.633 24.3921 71.344C24.3921 69.5064 25.8841 68.0141 27.7261 68.0141C29.5681 68.0141 31.064 69.5026 31.064 71.344C31.064 77.9578 36.4593 83.3402 43.0928 83.3402C49.7262 83.3402 55.1215 77.9578 55.1215 71.344C55.1215 69.5064 56.6135 68.0141 58.4594 68.0141C60.3052 68.0141 61.7934 69.5026 61.7934 71.344C61.7934 81.6292 53.4064 90 43.0928 90Z" fill="#5AC0D0"/>
<path d="M62.8777 62.4553C62.8777 63.6599 62.4008 64.6535 61.451 65.4437C60.5011 66.2302 59.4667 66.6253 58.3515 66.6253C57.2363 66.6253 56.2403 66.2302 55.3597 65.4437C54.4791 64.6573 54.0369 63.6599 54.0369 62.4553C54.0369 61.2506 54.4791 60.2686 55.3597 59.5051C56.2403 58.7417 57.2402 58.3581 58.3515 58.3581C59.4629 58.3581 60.4973 58.7494 61.451 59.5396C62.4008 60.3261 62.8777 61.3005 62.8777 62.4553Z" fill="#263D8D"/>
</g>
<defs>
<clipPath id="clip0_46_1523">
<rect width="113" height="90" fill="white"/>
</clipPath>
</defs>
</svg>
