<svg width="44" height="44" viewBox="0 0 44 44" fill="none" xmlns="http://www.w3.org/2000/svg">
<path d="M40.3333 31.02V36.52C40.3354 37.0306 40.2308 37.536 40.0263 38.0038C39.8217 38.4716 39.5217 38.8916 39.1455 39.2368C38.7692 39.5819 38.3251 39.8447 37.8414 40.0083C37.3577 40.1719 36.8452 40.2326 36.3367 40.1867C30.6952 39.5737 25.2762 37.646 20.515 34.5584C16.0854 31.7436 12.3298 27.988 9.51501 23.5584C6.41664 18.7756 4.48846 13.3302 3.88668 7.66335C3.84086 7.15637 3.90111 6.64541 4.06359 6.16299C4.22607 5.68058 4.48722 5.23728 4.83041 4.86132C5.17361 4.48536 5.59132 4.18498 6.05696 3.97931C6.5226 3.77363 7.02597 3.66716 7.53501 3.66668H13.035C13.9247 3.65792 14.7873 3.97299 15.4619 4.55316C16.1365 5.13332 16.5772 5.939 16.7017 6.82002C16.9338 8.58014 17.3643 10.3083 17.985 11.9717C18.2317 12.6279 18.2851 13.341 18.1388 14.0266C17.9926 14.7122 17.6529 15.3416 17.16 15.84L14.8317 18.1683C17.4415 22.7582 21.2418 26.5585 25.8317 29.1684L28.16 26.84C28.6585 26.3471 29.2878 26.0074 29.9734 25.8612C30.659 25.715 31.3721 25.7684 32.0283 26.015C33.6917 26.6357 35.4199 27.0662 37.18 27.2984C38.0706 27.424 38.8839 27.8726 39.4653 28.5588C40.0467 29.245 40.3557 30.1209 40.3333 31.02Z" stroke="#315BA6" stroke-width="3" stroke-linecap="round" stroke-linejoin="round"/>
</svg>
