<svg width="31" height="31" viewBox="0 0 31 31" fill="none" xmlns="http://www.w3.org/2000/svg">
<path d="M27.125 9.68749V7.74999C27.125 7.06485 26.8528 6.40777 26.3684 5.9233C25.8839 5.43883 25.2268 5.16666 24.5417 5.16666H6.45833C5.77319 5.16666 5.11611 5.43883 4.63164 5.9233C4.14717 6.40777 3.875 7.06485 3.875 7.74999V25.8333C3.875 26.5185 4.14717 27.1755 4.63164 27.66C5.11611 28.1445 5.77319 28.4167 6.45833 28.4167H10.9792" stroke="white" stroke-width="2" stroke-linecap="round" stroke-linejoin="round"/>
<path d="M20.6667 2.58334V7.75001" stroke="white" stroke-width="2" stroke-linecap="round" stroke-linejoin="round"/>
<path d="M10.3333 2.58334V7.75001" stroke="white" stroke-width="2" stroke-linecap="round" stroke-linejoin="round"/>
<path d="M3.875 12.9167H10.3333" stroke="white" stroke-width="2" stroke-linecap="round" stroke-linejoin="round"/>
<path d="M22.6042 22.6042L20.6667 20.9896V18.0833" stroke="white" stroke-width="2" stroke-linecap="round" stroke-linejoin="round"/>
<path d="M28.4167 20.6667C28.4167 22.7221 27.6002 24.6933 26.1468 26.1467C24.6934 27.6001 22.7222 28.4167 20.6667 28.4167C18.6113 28.4167 16.6401 27.6001 15.1867 26.1467C13.7333 24.6933 12.9167 22.7221 12.9167 20.6667C12.9167 18.6112 13.7333 16.64 15.1867 15.1866C16.6401 13.7332 18.6113 12.9167 20.6667 12.9167C22.7222 12.9167 24.6934 13.7332 26.1468 15.1866C27.6002 16.64 28.4167 18.6112 28.4167 20.6667Z" stroke="white" stroke-width="2" stroke-linecap="round" stroke-linejoin="round"/>
</svg>
